<?xml version="1.0" encoding="UTF-8"?>
<svg xmlns="http://www.w3.org/2000/svg" version="1.1" viewBox="0 0 300.4 52.8">
  <defs>
    <style>
      .cls-1 {
        fill: #fff;
        stroke: #000;
        stroke-miterlimit: 10;
      }

      .cls-2 {
        fill: #1b4852;
      }
    </style>
  </defs>
  <!-- Generator: Adobe Illustrator 28.7.10, SVG Export Plug-In . SVG Version: 1.2.0 Build 236)  -->
  <g>
    <g id="Warstwa_1">
      <rect class="cls-1" x="-37" y="-102.5" width="373" height="263.3"/>
      <g>
        <path class="cls-2" d="M12.6,10.5H0V0h37.1v10.5h-12.6v42.3h-12s0-42.3,0-42.3Z"/>
        <path class="cls-2" d="M43.3,0h21.5C67.9,0,70.6.6,73,1.9c2.4,1.3,4.3,3.1,5.7,5.5,1.4,2.4,2.1,5.3,2.1,8.6s-.6,6.1-1.8,8.2-2.6,3.7-4.3,4.8-3.2,1.7-4.6,1.9l12.8,21.9h-13.4l-11.4-21h-2.9v21h-12S43.3,0,43.3,0ZM55.3,23.6h5.3c2.1,0,4-.5,5.6-1.6s2.4-2.9,2.4-5.5-.8-4.5-2.4-5.5c-1.6-1-3.4-1.5-5.6-1.5h-5.4s0,14.1,0,14.1Z"/>
        <path class="cls-2" d="M104.2,0h11.9l20.8,52.8h-12.8l-3.8-10.6h-20.3l-3.9,10.6h-12.8L104.2,0ZM104,31.7h12.4l-6.1-17.3h-.1s-6.1,17.3-6.1,17.3Z"/>
        <path class="cls-2" d="M197.3,0v52.8h-11.9v-31.1l.5-8.8-2,10.1-8.9,25.6h-11.7l-8.8-25.6-2-10.1.5,8.8v31.1h-12V0h16.8l10.6,35.2.7,4.2.7-4.2L180.5,0h16.8Z"/>
        <path class="cls-2" d="M224,0h11.9l20.8,52.8h-12.8l-3.8-10.6h-20.3l-3.9,10.6h-12.8L224,0ZM223.8,31.7h12.4l-6.1-17.3h-.1l-6.1,17.3h0Z"/>
        <path class="cls-2" d="M260.6,0h21.5C285.2,0,288,.6,290.4,1.9c2.4,1.3,4.3,3.1,5.7,5.5,1.4,2.4,2.1,5.3,2.1,8.6s-.6,6.1-1.8,8.2-2.6,3.7-4.3,4.8c-1.6,1-3.2,1.7-4.6,1.9l12.8,21.9h-13.4l-11.4-21h-2.9v21h-12V0ZM272.6,23.6h5.3c2.1,0,4-.5,5.6-1.6s2.4-2.9,2.4-5.5-.8-4.5-2.4-5.5c-1.6-1-3.4-1.5-5.6-1.5h-5.4v14.1h0Z"/>
      </g>
      <rect class="cls-1" x="150.2" y="68.9" width="0" height="10"/>
    </g>
  </g>
</svg>